#!OML:ASF F:\VICON\USERDATA\INSTALL\rory3\rory3.ASF
:FULLY-SPECIFIED
:DEGREES
94
root -6.009494005397139 17.870519773751422 -1.7046805412846404 -165.26580069324422 -3.3631296515978235 -176.15594049085274
lfemur -19.056063542853707 -8.151182967674957 -7.13390929420174
ltibia 28.366209227151167
lfoot 20.061140859096835 -29.171411403254112
ltoes 40.899751219422726
rfemur 0.96614576570372 1.3463472624073014 14.49364178884528
rtibia 25.040959814866447
rfoot 29.452117157404082 -34.53288079232182
rtoes 28.489376563678185
lowerback -7.063315648973105 10.9996631777462 7.482243774065758
upperback -9.035457965278905 11.605783227790553 0.8211194899966405
thorax -3.3981668032350583 3.626592271813289 -1.626482242313875
lowerneck -15.763962267812751 -6.037107184754827 0.01983930159205094
upperneck 13.36570466406352 -10.597390410425476 0.9710553112799403
head 6.35590338225068 -5.34660493379734 -1.331505316112739
lclavicle -7.011171208246115e-15 -4.9673092057556585e-15
lhumerus 56.130258278191924 11.064913610852997 62.801467071564716
lradius 55.317800337336436
lwrist 22.346880018473037
lhand -11.051577870515757 25.718680740916383
lfingers 7.125020000000003
lthumb -168.1634988933151 309.59053314985124
rclavicle -7.020088567389703e-15 -5.1581746838664486e-15
rhumerus 67.35440447641156 25.320123121298337 -66.31336574326511
rradius 21.018586805640872
rwrist -38.60372652734618
rhand -39.518628825594206 5.95020371071789
rfingers 7.125020000000003
rthumb -17.086660319766395 -21.72719289248701
95
root -5.957702378698414 17.898860667977026 -1.6482194598201851 -165.40453326047339 -2.4693748638846564 -176.26704681147254
lfemur -18.68889248053876 -7.905776160123844 -6.546139158222852
ltibia 28.717763386952356
lfoot 18.113563804309944 -28.16617725807713
ltoes 38.60482542658973
rfemur 0.4049037911685005 1.78059195699596 13.700852460739428
rtibia 25.65941869979416
rfoot 28.891295914306475 -34.118649731133004
rtoes 27.366915667885323
lowerback -6.880508995703985 10.768572555726779 7.026139440268674
upperback -8.362247274478204 10.859698003795328 0.582939520806024
thorax -3.116998635726464 3.116740298733796 -1.4158572892661878
lowerneck -16.046992893544445 -5.160745384974635 0.5702014027920116
upperneck 13.686459530002976 -9.140804799846563 1.1934126887854797
head 6.708623215394514 -4.568384548060122 -1.3207620820697272
lclavicle -7.009802900637173e-15 -5.012745498740594e-15
lhumerus 55.410707996659 10.256114351614727 62.808585483281774
lradius 53.30128832819034
lwrist 24.21579776208201
lhand -10.17574468842159 26.522293808243404
lfingers 7.125020000000003
lthumb -167.76994465234188 299.9107287917567
rclavicle -7.019258461368282e-15 -5.157236631110042e-15
rhumerus 66.46892964115838 26.21911572062136 -66.91804420273685
rradius 21.193831474035953
rwrist -39.37083812260438
rhand -40.12000763642982 5.166689760125296
rfingers 7.125020000000003
rthumb -18.23216587527605 -22.633253382406384
96
root -5.910255804009615 17.92212984555774 -1.6007160938762266 -165.75306995678642 -1.7136491932665692 -176.36684629534167
lfemur -18.44717442130749 -7.816275063652107 -5.967240545911259
ltibia 29.06578235017945
lfoot 16.18869488240331 -26.99483451549217
ltoes 36.41324708933378
rfemur 0.15232148175600635 1.9733701400867583 13.085223952659245
rtibia 26.030366442878886
rfoot 28.25153496482944 -33.65879159623435
rtoes 26.1844425222502
lowerback -6.681680705867922 10.649646550324727 6.6152370200999915
upperback -7.77949861842105 10.146017102576753 0.36843324247081277
thorax -2.9376103550837955 2.581370718446143 -1.25217986400009
lowerneck -16.189164193913598 -4.688195876832195 0.9882575424606617
upperneck 13.895941323926086 -8.13168491323065 1.556813788279884
head 7.067962182010826 -3.9741528373340334 -1.2826305271944505
lclavicle -7.009977066999163e-15 -5.054167340606076e-15
lhumerus 54.91818981952311 9.465906356100298 62.771061801433156
lradius 51.464262631659615
lwrist 25.8987623094282
lhand -9.608442522862966 27.193862892284955
lfingers 7.125020000000003
lthumb -167.34888167167176 295.80827867969435
rclavicle -7.020090100317885e-15 -5.157679931122329e-15
rhumerus 65.81284642539164 27.177737076899064 -67.43988817483691
rradius 21.698466720390265
rwrist -39.85786180092994
rhand -40.685056335562685 4.215618689179186
rfingers 7.125020000000003
rthumb -19.187106592767343 -23.409220574114556
97
root -5.857519817074815 17.940469927315743 -1.5522284663303068 -166.05470110887865 -0.9321368059292965 -176.20092140890836
lfemur -18.334459189018055 -7.801417212060717 -5.437017319416039
ltibia 29.394110432212234
lfoot 14.804720438974456 -25.797755453096922
ltoes 34.51917747127374
rfemur 0.16008341098806333 2.006948411155832 12.64042455673646
rtibia 26.226541330178932
rfoot 27.571860027029288 -33.07446829349711
rtoes 24.999579506606274
lowerback -6.447772430898072 10.561107292298274 6.15589717079807
upperback -7.291033666363436 9.53021261199858 0.19999415955022481
thorax -2.8321646417271484 2.0679834208115557 -1.1606470020403057
lowerneck -16.19933864686639 -4.45023737502237 1.2994754179813872
upperneck 13.995223529699604 -7.557204111720898 2.0081506120885866
head 7.398033351041905 -3.5489497085719774 -1.2151865002112499
lclavicle -7.008989083353723e-15 -5.094991125732683e-15
lhumerus 54.528721572608674 8.562196546327641 62.7991904850561
lradius 49.817532405695715
lwrist 27.558317975296227
lhand -9.39036170783321 27.600958776719896
lfingers 7.125020000000003
lthumb -166.9321055876182 297.61921050053144
rclavicle -7.0237232317209575e-15 -5.160281567161885e-15
rhumerus 65.34279497183516 28.184315891588483 -67.86564511325057
rradius 22.64676007370589
rwrist -39.95046639450945
rhand -41.24212963184657 3.3017906390302834
rfingers 7.125020000000003
rthumb -19.904467526553468 -24.08435024120884
98
root -5.803277438107965 17.962542504354808 -1.508218190697289 -166.1506374374809 -0.12014361763788983 -175.91674106766527
lfemur -18.389242472658747 -7.794405757769881 -4.9450753494619315
ltibia 29.69009256223065
lfoot 13.71776736244599 -24.737874096522876
ltoes 32.24462189279699
rfemur 0.3049897036249565 1.9251162447091783 12.347385248659565
rtibia 26.165775970695435
rfoot 26.918248864478656 -32.44943744754128
rtoes 23.504696283197568
lowerback -6.152105494833565 10.44779377494876 5.6275809477891645
upperback -6.924438095464117 8.992950394699543 0.0883612787464112
thorax -2.8324579175175417 1.6436310536602143 -1.0905510194811847
lowerneck -16.063076618921798 -4.291708332535871 1.5030846526669852
upperneck 14.003980655964481 -7.209729582245768 2.4718016638143645
head 7.68120464991443 -3.2357987614965427 -1.1264347425594379
lclavicle -7.009307975257102e-15 -5.124907510856445e-15
lhumerus 54.28376311902461 7.710506481028393 62.955912533497774
lradius 48.36801901204616
lwrist 29.333851850169758
lhand -9.220544465598433 27.631553480090233
lfingers 7.125020000000003
lthumb -166.59921769973863 300.2993996405178
rclavicle -7.0274314854946e-15 -5.162970252629031e-15
rhumerus 65.19204479275922 29.30973111304246 -68.1277616893346
rradius 24.123482644004234
rwrist -39.89082039868323
rhand -41.67804123801441 2.605597293281342
rfingers 7.125020000000003
rthumb -20.35886668011138 -24.45381102379004
99
root -5.761703686563229 17.97274624897261 -1.4567319961743355 -166.09722989319408 0.5543455342400847 -175.6109205467885
lfemur -18.574452822908786 -7.854911199858493 -4.531934236577556
ltibia 29.936639984907497
lfoot 13.121506953041175 -23.70137083328227
ltoes 30.934408902924154
rfemur 0.518179601088006 1.680969710671054 12.149620774638116
rtibia 26.042325253931374
rfoot 26.265254845308235 -31.672908591151355
rtoes 21.733519802943604
lowerback -5.87170400158749 10.184886412309833 5.04796549575012
upperback -6.633502244668935 8.56277471345585 0.06974508234744636
thorax -2.861273052945493 1.369900540972292 -0.9920484512527983
lowerneck -15.909701310887023 -4.166424459936469 1.640954826956334
upperneck 13.959861905328477 -7.022298170064327 2.945501784872321
head 7.930683801833063 -3.0101810791507164 -1.0257091811311445
lclavicle -7.00913754528168e-15 -5.143007473751037e-15
lhumerus 54.106284499794654 6.8350425709277935 63.170610231929466
lradius 47.011488488588704
lwrist 31.108416204842985
lhand -9.329844791543334 27.266760646825308
lfingers 7.125020000000003
lthumb -166.40646265387807 299.36758743228427
rclavicle -7.0315719472683234e-15 -5.1659559931579545e-15
rhumerus 64.95035336109328 30.314440537427856 -68.4123036829625
rradius 26.168508823105405
rwrist -39.7579184037972
rhand -41.9489547556693 1.9992187935811643
rfingers 7.125020000000003
rthumb -20.446652682382265 -24.796968447757777
